<svg xmlns="http://www.w3.org/2000/svg" width="230" height="230" xml:space="preserve"><path fill="#FFF" d="m160.273 183.104-6.748-6.649c18.729-13.731 30.927-35.935 30.927-60.95 0-26.016-13.181-48.997-33.188-62.566l6.723-6.705c21.643 15.373 35.81 40.684 35.81 69.271-.002 27.565-13.171 52.097-33.524 67.599zm-13.319-20.034-6.867-6.771c13.951-8.226 23.361-23.41 23.361-40.799 0-18.345-10.466-34.248-25.695-42.097l6.894-6.882c16.799 9.835 28.145 28.081 28.145 48.979-.003 19.932-10.315 37.456-25.838 47.57zm-31.792-48.403.002 16.565v62.65c0 12.116-9.319 0-9.319 0l-40.284-45.666H43.095s-6.889.448-6.889-7V88.105c0-7.023 6.889-7 6.889-7h22.521l40.229-45.659s9.319-10.615 9.319 0v62.652c0 11.069-.002 16.569-.002 16.569z"/></svg>