<?xml version="1.0" encoding="UTF-8" ?>
<!DOCTYPE svg PUBLIC "-//W3C//DTD SVG 1.1//EN" "http://www.w3.org/Graphics/SVG/1.1/DTD/svg11.dtd">
<svg width="230pt" height="230pt" viewBox="0 0 230 230" version="1.1" xmlns="http://www.w3.org/2000/svg">
<g id="#ffffffff">
<path fill="#ffffff" opacity="1.00" d=" M 74.96 22.53 C 84.54 20.10 94.02 17.21 103.66 15.01 C 105.36 21.80 107.22 28.54 109.04 35.30 C 113.02 35.32 117.00 35.33 120.99 35.29 C 123.01 28.67 124.20 21.78 126.68 15.32 C 135.92 18.15 145.31 20.53 154.64 23.05 C 154.34 24.62 153.98 26.17 153.63 27.73 C 146.42 30.46 139.52 34.62 134.96 40.98 C 130.09 47.37 128.65 55.66 128.90 63.52 C 120.46 62.22 111.78 61.98 103.37 63.57 C 87.27 67.00 73.30 78.65 66.72 93.70 C 61.16 106.07 60.78 120.56 65.43 133.28 C 55.11 132.81 44.85 137.29 38.03 145.01 C 35.79 147.18 34.58 150.16 32.51 152.44 C 29.21 153.46 25.86 154.40 22.45 154.94 C 20.16 145.35 17.17 135.93 15.00 126.31 C 21.76 124.64 28.47 122.76 35.20 120.98 C 35.24 116.99 35.35 113.01 35.30 109.02 C 28.64 107.09 21.81 105.69 15.24 103.44 C 18.10 94.12 20.40 84.63 23.12 75.27 C 29.70 76.95 36.21 78.85 42.80 80.46 C 44.80 76.87 46.86 73.31 48.96 69.78 C 44.34 64.78 39.08 60.36 34.73 55.12 C 41.72 48.36 48.38 41.28 55.30 34.46 C 60.25 39.20 65.01 44.13 69.88 48.95 C 73.33 46.93 76.81 44.97 80.25 42.95 C 78.57 36.12 76.42 29.41 74.96 22.53 Z" />
<path fill="#ffffff" opacity="1.00" d=" M 140.09 42.07 C 150.71 30.24 169.86 26.82 183.58 35.25 C 175.09 41.46 165.95 46.72 157.34 52.74 C 162.04 60.66 166.63 68.63 171.19 76.63 C 180.01 71.66 188.60 66.31 197.38 61.27 C 199.28 65.81 198.60 70.97 197.46 75.62 C 195.50 83.39 190.31 90.57 182.82 93.78 C 175.04 97.29 166.18 96.56 158.09 94.61 C 135.77 116.29 113.82 138.35 91.63 160.16 C 92.89 166.39 92.60 173.04 89.94 178.89 C 84.93 190.53 71.72 197.95 59.17 195.84 C 45.62 194.13 34.48 181.67 34.44 167.99 C 33.79 155.16 42.91 142.76 55.26 139.36 C 59.68 137.97 64.38 138.13 68.94 138.60 C 91.07 116.37 113.54 94.46 135.60 72.15 C 132.32 62.22 133.02 50.24 140.09 42.07 M 45.90 162.03 C 47.51 167.87 48.88 173.78 50.58 179.60 C 56.01 182.21 62.44 182.81 68.20 184.83 C 72.67 180.60 76.91 176.12 81.33 171.83 C 79.75 165.76 78.12 159.70 76.42 153.66 C 70.61 152.29 64.78 151.01 59.00 149.56 C 54.44 153.51 50.24 157.85 45.90 162.03 Z" />
<path fill="#ffffff" opacity="1.00" d=" M 202.45 76.34 C 204.13 75.84 205.83 75.37 207.55 75.05 C 209.84 84.64 212.82 94.07 215.01 103.68 C 208.26 105.38 201.54 107.19 194.84 109.05 C 194.82 113.03 194.93 117.01 194.75 120.99 C 201.42 122.92 208.17 124.57 214.80 126.64 C 212.18 136.06 209.62 145.50 207.03 154.92 C 200.37 153.33 193.80 151.39 187.17 149.71 C 185.14 153.17 183.15 156.64 181.15 160.10 C 185.94 164.98 190.88 169.70 195.59 174.66 C 188.71 181.64 181.88 188.66 174.89 195.53 C 169.93 190.73 165.20 185.70 160.18 180.96 C 156.73 183.04 153.21 185.00 149.73 187.04 C 151.37 193.83 153.64 200.47 154.94 207.34 C 145.39 209.73 135.91 212.45 126.37 214.89 C 124.58 208.16 122.79 201.44 121.00 194.71 C 116.96 194.66 112.92 194.71 108.88 194.66 C 106.84 201.30 105.32 208.08 103.36 214.74 C 93.95 212.10 84.50 209.57 75.07 206.98 C 75.93 203.93 76.22 200.61 77.76 197.82 C 83.24 194.87 88.34 190.99 91.75 185.70 C 95.77 179.54 97.45 172.04 97.19 164.74 C 109.79 169.12 123.96 168.72 136.21 163.39 C 148.58 158.32 159.07 148.43 164.04 135.93 C 168.57 124.93 168.70 112.59 166.29 101.06 C 174.75 101.50 183.76 99.95 190.62 94.66 C 196.54 90.13 200.29 83.37 202.45 76.34 Z" />
</g>
</svg>
