<?xml version="1.0" encoding="UTF-8" ?>
<!DOCTYPE svg PUBLIC "-//W3C//DTD SVG 1.1//EN" "http://www.w3.org/Graphics/SVG/1.1/DTD/svg11.dtd">
<svg width="230pt" height="230pt" viewBox="0 0 230 230" version="1.1" xmlns="http://www.w3.org/2000/svg">
<g id="#ffffffff">
<path fill="#ffffff" opacity="1.00" d=" M 146.51 43.34 C 148.44 43.33 150.36 43.30 152.29 43.27 C 154.43 46.79 154.33 51.86 152.10 55.33 C 150.13 57.87 147.17 55.76 145.55 54.01 C 145.80 50.45 144.93 46.69 146.51 43.34 Z" />
<path fill="#ffffff" opacity="1.00" d=" M 27.16 80.52 C 32.51 67.78 39.87 55.69 50.42 46.62 C 51.50 46.33 52.49 46.94 53.16 47.75 C 66.53 61.06 79.35 74.93 93.16 87.79 C 103.45 97.88 113.27 108.41 123.53 118.52 C 135.17 129.18 145.76 140.91 157.00 151.99 C 166.06 161.17 175.62 169.84 184.45 179.25 C 179.77 183.36 175.52 188.01 170.29 191.46 C 158.41 199.75 144.81 205.85 130.46 208.20 C 126.79 208.87 122.91 207.94 119.36 209.29 C 115.54 210.12 111.55 209.65 107.83 208.60 C 98.64 209.04 89.85 206.11 81.28 203.18 C 70.03 198.36 59.05 192.37 50.34 183.62 C 35.63 170.11 26.05 151.55 22.06 132.11 C 21.00 127.67 22.20 122.94 20.51 118.65 C 20.04 115.00 20.36 111.33 21.40 107.84 C 21.00 98.38 23.97 89.27 27.16 80.52 M 60.52 125.65 C 52.93 137.17 53.74 153.61 62.89 164.06 C 67.45 169.01 73.13 173.64 80.05 174.41 C 85.61 175.08 91.32 174.98 96.85 174.05 C 104.97 171.42 111.93 165.47 115.95 157.94 C 116.85 156.58 116.43 154.86 116.50 153.34 C 111.94 154.88 108.20 158.30 103.43 159.34 C 96.45 161.08 89.25 158.47 83.63 154.36 C 77.79 149.76 74.73 142.24 74.65 134.94 C 75.69 130.07 76.07 124.54 80.00 120.94 C 82.84 117.35 87.19 115.40 90.04 111.88 C 78.49 110.01 67.26 116.62 60.52 125.65 M 87.87 127.99 C 88.48 129.54 89.09 131.09 89.75 132.62 C 91.31 131.61 92.87 130.55 94.67 130.03 C 93.57 128.61 92.80 126.98 92.07 125.35 C 90.68 126.24 89.29 127.14 87.87 127.99 M 104.14 137.05 C 105.89 138.63 107.24 140.57 107.88 142.85 C 109.69 141.48 111.59 140.24 113.50 139.03 C 112.25 137.17 111.03 135.30 110.01 133.32 C 108.23 134.83 106.20 135.99 104.14 137.05 Z" />
<path fill="#ffffff" opacity="1.00" d=" M 122.86 52.37 C 124.22 52.39 125.59 52.47 126.96 52.60 C 129.41 54.82 131.88 57.15 133.62 59.99 C 133.88 63.02 130.41 64.24 127.86 63.95 C 125.68 61.66 123.23 59.60 121.34 57.04 C 121.03 55.29 122.11 53.84 122.86 52.37 Z" />
<path fill="#ffffff" opacity="1.00" d=" M 164.78 61.70 C 166.14 57.99 169.04 55.15 172.13 52.82 C 174.94 52.15 178.34 54.95 177.44 57.92 C 175.36 61.13 172.53 64.02 169.02 65.63 C 167.61 64.32 166.21 63.00 164.78 61.70 Z" />
<path fill="#ffffff" opacity="1.00" d=" M 143.31 61.03 C 154.35 57.49 166.59 65.20 169.29 76.20 C 169.63 80.77 169.37 85.47 167.51 89.72 C 165.11 93.22 162.81 97.30 158.61 98.87 C 154.12 101.28 148.92 100.80 144.01 100.68 C 136.26 98.58 130.23 91.66 128.65 83.83 C 127.11 74.00 133.75 63.74 143.31 61.03 Z" />
<path fill="#ffffff" opacity="1.00" d=" M 111.44 77.86 C 114.67 75.36 118.88 76.63 122.63 76.39 C 123.95 77.76 124.77 79.42 124.73 81.36 C 123.76 82.28 122.83 83.25 121.79 84.10 C 119.28 84.73 116.63 84.30 114.06 84.43 C 113.22 83.59 112.36 82.76 111.50 81.95 C 111.49 80.58 111.47 79.22 111.44 77.86 Z" />
<path fill="#ffffff" opacity="1.00" d=" M 174.29 77.54 C 178.35 77.36 182.42 77.33 186.48 77.59 C 186.61 79.43 186.67 81.29 186.69 83.14 C 185.90 83.88 185.13 84.64 184.37 85.41 C 180.91 84.95 176.20 86.88 174.12 83.10 C 174.00 81.24 174.16 79.39 174.29 77.54 Z" />
<path fill="#ffffff" opacity="1.00" d=" M 120.72 102.59 C 123.29 99.11 128.12 94.19 132.49 97.92 C 132.49 99.32 132.51 100.72 132.56 102.13 C 129.94 104.74 127.43 107.64 123.95 109.12 C 122.09 107.43 119.73 105.42 120.72 102.59 Z" />
<path fill="#ffffff" opacity="1.00" d=" M 165.42 99.02 C 166.46 97.91 167.72 97.04 168.92 96.12 C 171.55 98.72 174.42 101.11 176.68 104.04 C 177.08 106.52 175.16 108.66 173.09 109.73 C 169.63 107.17 163.84 104.21 165.42 99.02 Z" />
<path fill="#ffffff" opacity="1.00" d=" M 143.64 107.52 C 145.46 105.96 147.88 105.49 150.05 104.65 C 153.65 107.52 152.42 112.10 152.63 116.13 C 151.87 116.97 151.12 117.81 150.38 118.66 C 147.89 118.69 145.66 117.60 143.57 116.38 C 143.62 113.43 143.47 110.47 143.64 107.52 Z" />
</g>
</svg>
