<?xml version="1.0" encoding="UTF-8" ?>
<!DOCTYPE svg PUBLIC "-//W3C//DTD SVG 1.1//EN" "http://www.w3.org/Graphics/SVG/1.1/DTD/svg11.dtd">
<svg width="80pt" height="80pt" viewBox="0 0 80 80" version="1.1" xmlns="http://www.w3.org/2000/svg">
<g id="#3498dbff">
<path fill="#3498db" opacity="1.00" d=" M 29.47 1.66 C 38.02 -0.67 47.35 -0.01 55.47 3.55 C 66.57 8.24 75.19 18.34 78.12 30.02 C 81.05 41.20 78.77 53.64 71.92 62.96 C 65.90 71.46 56.34 77.38 46.04 78.97 C 36.39 80.56 26.17 78.37 18.03 72.94 C 9.07 67.12 2.71 57.50 0.84 46.98 C -0.82 37.94 0.76 28.33 5.37 20.37 C 10.47 11.24 19.37 4.37 29.47 1.66 M 36.14 4.13 C 22.83 5.48 10.75 14.80 6.22 27.41 C 0.53 41.89 5.75 59.65 18.31 68.79 C 27.13 75.50 39.15 77.85 49.80 74.68 C 60.65 71.73 69.80 63.32 73.71 52.78 C 78.85 39.83 75.36 24.21 65.48 14.45 C 57.87 6.90 46.83 2.91 36.14 4.13 Z" />
</g>
<g id="#00000033">
<path fill="#000000" opacity="0.20" d=" M 36.14 4.13 C 46.83 2.91 57.87 6.90 65.48 14.45 C 75.36 24.21 78.85 39.83 73.71 52.78 C 69.80 63.32 60.65 71.73 49.80 74.68 C 39.15 77.85 27.13 75.50 18.31 68.79 C 5.75 59.65 0.53 41.89 6.22 27.41 C 10.75 14.80 22.83 5.48 36.14 4.13 M 31.62 12.57 C 26.27 15.69 22.09 20.88 20.96 27.05 C 19.46 35.55 22.37 44.12 26.31 51.56 C 27.74 54.10 29.33 56.54 31.01 58.92 C 32.44 60.80 33.91 62.67 35.43 64.48 C 36.89 66.01 38.35 67.55 39.97 68.92 L 40.60 70.09 C 41.75 68.86 43.06 67.74 43.94 66.28 C 45.94 64.16 47.79 61.90 49.55 59.57 C 51.32 57.29 53.16 54.98 54.28 52.29 C 59.96 42.72 63.29 30.02 57.33 19.78 C 56.07 18.29 54.80 16.81 53.50 15.36 C 51.49 13.91 49.36 12.65 47.14 11.56 C 44.77 11.07 42.39 10.67 39.98 10.44 C 37.11 10.76 34.28 11.43 31.62 12.57 M 11.29 28.30 C 11.77 28.84 11.77 28.84 11.29 28.30 M 69.26 28.31 C 69.77 28.83 69.77 28.83 69.26 28.31 Z" />
<path fill="#000000" opacity="0.20" d=" M 31.22 24.43 C 33.16 22.37 35.48 20.66 38.16 19.69 C 40.60 19.55 43.04 19.83 45.37 20.57 C 47.96 22.17 49.97 24.52 51.28 27.26 C 51.97 30.67 51.61 34.14 50.41 37.39 C 49.10 38.84 47.74 40.25 46.26 41.52 C 44.37 42.25 42.39 42.74 40.39 43.05 C 39.83 42.95 38.71 42.75 38.15 42.65 C 36.67 42.17 35.24 41.56 33.85 40.88 C 32.01 39.02 30.56 36.81 29.45 34.45 C 29.07 30.99 29.55 27.51 31.22 24.43 Z" />
</g>
<g id="#c21585ff">
<path fill="#c21585" opacity="1.00" d=" M 31.62 12.57 C 34.28 11.43 37.11 10.76 39.98 10.44 C 39.45 13.54 38.85 16.62 38.16 19.69 C 35.48 20.66 33.16 22.37 31.22 24.43 C 31.58 20.49 31.54 16.53 31.62 12.57 Z" />
</g>
<g id="#a6166dff">
<path fill="#a6166d" opacity="1.00" d=" M 39.98 10.44 C 42.39 10.67 44.77 11.07 47.14 11.56 C 46.66 14.58 46.10 17.59 45.37 20.57 C 43.04 19.83 40.60 19.55 38.16 19.69 C 38.85 16.62 39.45 13.54 39.98 10.44 Z" />
</g>
<g id="#8b1657ff">
<path fill="#8b1657" opacity="1.00" d=" M 47.14 11.56 C 49.36 12.65 51.49 13.91 53.50 15.36 C 52.60 19.29 51.59 23.23 51.28 27.26 C 49.97 24.52 47.96 22.17 45.37 20.57 C 46.10 17.59 46.66 14.58 47.14 11.56 Z" />
</g>
<g id="#e1159fff">
<path fill="#e1159f" opacity="1.00" d=" M 20.96 27.05 C 22.09 20.88 26.27 15.69 31.62 12.57 C 31.54 16.53 31.58 20.49 31.22 24.43 C 29.55 27.51 29.07 30.99 29.45 34.45 C 28.00 40.08 27.53 45.89 26.31 51.56 C 22.37 44.12 19.46 35.55 20.96 27.05 Z" />
</g>
<g id="#751744ff">
<path fill="#751744" opacity="1.00" d=" M 53.50 15.36 C 54.80 16.81 56.07 18.29 57.33 19.78 C 56.67 30.65 54.88 41.42 54.28 52.29 C 53.16 54.98 51.32 57.29 49.55 59.57 C 49.00 52.14 51.31 44.83 50.41 37.39 C 51.61 34.14 51.97 30.67 51.28 27.26 C 51.59 23.23 52.60 19.29 53.50 15.36 Z" />
</g>
<g id="#641736ff">
<path fill="#641736" opacity="1.00" d=" M 57.33 19.78 C 63.29 30.02 59.96 42.72 54.28 52.29 C 54.88 41.42 56.67 30.65 57.33 19.78 Z" />
</g>
<g id="#2e2e2e7d">
<path fill="#2e2e2e" opacity="0.49" d=" M 11.29 28.30 C 11.77 28.84 11.77 28.84 11.29 28.30 Z" />
</g>
<g id="#36363683">
<path fill="#363636" opacity="0.51" d=" M 69.26 28.31 C 69.77 28.83 69.77 28.83 69.26 28.31 Z" />
</g>
<g id="#ca158bff">
<path fill="#ca158b" opacity="1.00" d=" M 29.45 34.45 C 30.56 36.81 32.01 39.02 33.85 40.88 C 32.92 46.90 32.51 53.01 31.01 58.92 C 29.33 56.54 27.74 54.10 26.31 51.56 C 27.53 45.89 28.00 40.08 29.45 34.45 Z" />
</g>
<g id="#851651ff">
<path fill="#851651" opacity="1.00" d=" M 46.26 41.52 C 47.74 40.25 49.10 38.84 50.41 37.39 C 51.31 44.83 49.00 52.14 49.55 59.57 C 47.79 61.90 45.94 64.16 43.94 66.28 C 45.01 58.06 46.06 49.81 46.26 41.52 Z" />
</g>
<g id="#b6157aff">
<path fill="#b6157a" opacity="1.00" d=" M 33.85 40.88 C 35.24 41.56 36.67 42.17 38.15 42.65 C 37.35 49.94 36.89 57.28 35.43 64.48 C 33.91 62.67 32.44 60.80 31.01 58.92 C 32.51 53.01 32.92 46.90 33.85 40.88 Z" />
</g>
<g id="#95165eff">
<path fill="#95165e" opacity="1.00" d=" M 40.39 43.05 C 42.39 42.74 44.37 42.25 46.26 41.52 C 46.06 49.81 45.01 58.06 43.94 66.28 C 43.06 67.74 41.75 68.86 40.60 70.09 L 39.97 68.92 C 39.83 61.89 41.46 54.98 41.84 47.99 C 42.09 46.19 41.34 44.52 40.39 43.05 Z" />
</g>
<g id="#a5166cff">
<path fill="#a5166c" opacity="1.00" d=" M 38.15 42.65 C 38.71 42.75 39.83 42.95 40.39 43.05 C 41.34 44.52 42.09 46.19 41.84 47.99 C 41.46 54.98 39.83 61.89 39.97 68.92 C 38.35 67.55 36.89 66.01 35.43 64.48 C 36.89 57.28 37.35 49.94 38.15 42.65 Z" />
</g>
</svg>
