<?xml version="1.0" encoding="UTF-8" ?>
<!DOCTYPE svg PUBLIC "-//W3C//DTD SVG 1.1//EN" "http://www.w3.org/Graphics/SVG/1.1/DTD/svg11.dtd">
<svg width="80pt" height="80pt" viewBox="0 0 80 80" version="1.1" xmlns="http://www.w3.org/2000/svg">
<g id="#3498dbff">
<path fill="#3498db" opacity="1.00" d=" M 29.47 1.66 C 37.99 -0.66 47.29 -0.01 55.39 3.52 C 66.54 8.20 75.19 18.33 78.13 30.05 C 81.05 41.21 78.76 53.63 71.94 62.95 C 65.90 71.48 56.30 77.40 45.97 78.98 C 36.57 80.50 26.62 78.47 18.60 73.31 C 9.36 67.53 2.76 57.75 0.85 47.02 C -0.82 37.97 0.75 28.35 5.37 20.37 C 10.47 11.23 19.37 4.37 29.47 1.66 M 34.45 4.19 C 17.72 6.60 3.89 21.98 3.89 38.97 C 3.21 51.98 10.57 64.69 21.71 71.23 C 30.71 76.53 42.08 77.68 51.92 74.14 C 58.97 71.95 64.77 66.99 69.30 61.29 C 76.17 51.87 78.10 39.04 74.13 28.05 C 71.84 20.78 66.67 14.79 60.67 10.26 C 53.11 4.98 43.55 2.91 34.45 4.19 Z" />
</g>
<g id="#00000033">
<path fill="#000000" opacity="0.20" d=" M 34.45 4.19 C 43.55 2.91 53.11 4.98 60.67 10.26 C 66.67 14.79 71.84 20.78 74.13 28.05 C 78.10 39.04 76.17 51.87 69.30 61.29 C 64.77 66.99 58.97 71.95 51.92 74.14 C 42.08 77.68 30.71 76.53 21.71 71.23 C 10.57 64.69 3.21 51.98 3.89 38.97 C 3.89 21.98 17.72 6.60 34.45 4.19 M 20.52 17.96 C 20.96 18.33 21.84 19.06 22.28 19.42 C 21.96 33.63 22.23 47.85 22.16 62.06 C 21.84 64.68 24.18 66.27 25.76 67.93 C 26.95 66.10 29.03 64.47 28.84 62.06 C 29.11 54.94 28.35 47.79 29.31 40.70 C 33.14 39.02 37.28 40.37 41.24 40.58 C 42.09 40.89 43.80 41.51 44.66 41.83 L 44.65 41.88 C 46.96 42.44 49.25 43.06 51.54 43.70 C 53.82 44.07 56.11 44.40 58.40 44.72 C 61.34 44.25 64.25 43.57 67.06 42.56 C 64.26 40.83 61.45 39.12 58.66 37.36 L 58.68 37.05 C 57.25 35.71 55.83 34.36 54.42 33.01 C 55.81 31.90 57.21 30.80 58.60 29.70 L 58.60 29.48 C 61.78 26.74 64.47 23.50 67.03 20.18 C 64.21 21.06 61.37 21.83 58.46 22.30 C 56.45 22.02 54.45 21.76 52.44 21.50 C 50.12 20.86 47.80 20.22 45.47 19.59 C 43.21 18.98 40.94 18.36 38.68 17.75 C 35.23 17.49 31.66 17.26 28.29 18.24 C 25.72 17.82 23.11 17.71 20.52 17.96 M 61.19 18.10 C 61.43 21.40 64.19 16.52 61.19 18.10 M 67.25 59.24 C 67.81 59.82 67.81 59.82 67.25 59.24 M 17.38 61.09 C 17.55 64.38 20.41 59.56 17.38 61.09 Z" />
</g>
<g id="#49030ffe">
<path fill="#49030f" opacity="1.00" d=" M 20.52 17.96 C 23.11 17.71 25.72 17.82 28.29 18.24 C 27.53 18.57 26.01 19.24 25.25 19.58 C 25.21 27.10 25.40 34.62 25.13 42.14 C 22.70 35.32 25.07 27.97 23.76 20.97 C 23.39 20.58 22.65 19.81 22.28 19.42 C 21.84 19.06 20.96 18.33 20.52 17.96 Z" />
</g>
<g id="#b6ff00ff">
<path fill="#b6ff00" opacity="1.00" d=" M 28.29 18.24 C 31.66 17.26 35.23 17.49 38.68 17.75 C 40.27 24.96 39.44 32.35 39.49 39.65 C 39.92 39.88 40.80 40.34 41.24 40.58 C 37.28 40.37 33.14 39.02 29.31 40.70 C 27.93 41.22 26.55 41.74 25.17 42.26 L 25.13 42.14 C 25.40 34.62 25.21 27.10 25.25 19.58 C 26.01 19.24 27.53 18.57 28.29 18.24 Z" />
</g>
<g id="#8ec700ff">
<path fill="#8ec700" opacity="1.00" d=" M 38.68 17.75 C 40.94 18.36 43.21 18.98 45.47 19.59 C 45.33 27.00 46.17 34.50 44.66 41.83 C 43.80 41.51 42.09 40.89 41.24 40.58 C 40.80 40.34 39.92 39.88 39.49 39.65 C 39.44 32.35 40.27 24.96 38.68 17.75 Z" />
</g>
<g id="#6b6b6bad">
<path fill="#6b6b6b" opacity="0.68" d=" M 61.19 18.10 C 64.19 16.52 61.43 21.40 61.19 18.10 Z" />
</g>
<g id="#623313ff">
<path fill="#623313" opacity="1.00" d=" M 22.28 19.42 C 22.65 19.81 23.39 20.58 23.76 20.97 C 25.07 27.97 22.70 35.32 25.13 42.14 L 25.17 42.26 C 26.29 50.76 25.26 59.38 25.76 67.93 C 24.18 66.27 21.84 64.68 22.16 62.06 C 22.23 47.85 21.96 33.63 22.28 19.42 Z" />
</g>
<g id="#5e8400ff">
<path fill="#5e8400" opacity="1.00" d=" M 45.47 19.59 C 47.80 20.22 50.12 20.86 52.44 21.50 C 51.15 28.89 53.58 36.39 51.54 43.70 C 49.25 43.06 46.96 42.44 44.65 41.88 L 44.66 41.83 C 46.17 34.50 45.33 27.00 45.47 19.59 Z" />
</g>
<g id="#000000ff">
<path fill="#000000" opacity="1.00" d=" M 58.46 22.30 C 61.37 21.83 64.21 21.06 67.03 20.18 C 64.47 23.50 61.78 26.74 58.60 29.48 C 58.54 27.09 58.49 24.69 58.46 22.30 Z" />
<path fill="#000000" opacity="1.00" d=" M 58.66 37.36 C 61.45 39.12 64.26 40.83 67.06 42.56 C 64.25 43.57 61.34 44.25 58.40 44.72 C 58.47 42.26 58.56 39.81 58.66 37.36 Z" />
</g>
<g id="#273700ff">
<path fill="#273700" opacity="1.00" d=" M 52.44 21.50 C 54.45 21.76 56.45 22.02 58.46 22.30 C 58.49 24.69 58.54 27.09 58.60 29.48 L 58.60 29.70 C 57.21 30.80 55.81 31.90 54.42 33.01 C 55.83 34.36 57.25 35.71 58.68 37.05 L 58.66 37.36 C 58.56 39.81 58.47 42.26 58.40 44.72 C 56.11 44.40 53.82 44.07 51.54 43.70 C 53.58 36.39 51.15 28.89 52.44 21.50 Z" />
</g>
<g id="#1d0a02ff">
<path fill="#1d0a02" opacity="1.00" d=" M 25.17 42.26 C 26.55 41.74 27.93 41.22 29.31 40.70 C 28.35 47.79 29.11 54.94 28.84 62.06 C 29.03 64.47 26.95 66.10 25.76 67.93 C 25.26 59.38 26.29 50.76 25.17 42.26 Z" />
</g>
<g id="#5050509b">
<path fill="#505050" opacity="0.61" d=" M 67.25 59.24 C 67.81 59.82 67.81 59.82 67.25 59.24 Z" />
</g>
<g id="#707070af">
<path fill="#707070" opacity="0.69" d=" M 17.38 61.09 C 20.41 59.56 17.55 64.38 17.38 61.09 Z" />
</g>
</svg>
