<?xml version="1.0" encoding="UTF-8" ?>
<!DOCTYPE svg PUBLIC "-//W3C//DTD SVG 1.1//EN" "http://www.w3.org/Graphics/SVG/1.1/DTD/svg11.dtd">
<svg width="80pt" height="80pt" viewBox="0 0 80 80" version="1.1" xmlns="http://www.w3.org/2000/svg">
<g id="#01010081">
<path fill="#010100" opacity="0.51" d=" M 33.46 0.00 L 45.55 0.00 C 53.65 2.77 62.34 5.05 68.30 11.70 C 74.47 17.83 78.04 26.01 80.00 34.37 L 80.00 46.54 C 77.02 56.49 72.83 66.79 63.74 72.70 C 59.33 76.36 53.90 78.24 48.55 80.00 L 30.42 80.00 C 15.76 76.24 5.02 64.56 0.00 50.60 L 0.00 30.42 C 3.26 22.81 6.72 14.63 13.67 9.63 C 19.18 4.37 26.42 2.26 33.46 0.00 M 39.22 4.14 C 37.70 7.75 36.14 11.35 34.78 15.01 C 32.29 19.03 30.73 24.30 29.01 28.92 C 26.32 32.20 25.30 37.23 23.72 41.34 C 22.35 40.82 22.39 44.00 21.85 44.99 C 20.28 46.77 19.80 50.00 18.74 52.36 C 17.27 53.81 16.74 57.16 15.71 59.34 C 14.17 61.17 13.32 65.34 12.07 68.10 C 18.58 66.53 24.47 62.88 30.87 60.80 L 30.85 60.19 C 33.72 59.53 36.37 58.21 39.07 57.06 C 44.65 58.04 49.53 61.66 55.05 62.98 C 57.48 64.48 60.24 65.37 62.96 66.20 C 63.70 67.56 65.64 67.68 67.00 68.06 C 66.28 66.56 66.82 63.42 65.03 63.07 C 62.27 57.13 60.69 50.09 57.00 44.92 C 52.63 32.13 46.45 19.96 41.62 7.31 C 40.92 6.29 40.74 4.08 39.22 4.14 Z" />
</g>
<g id="#d9e77bff">
<path fill="#d9e77b" opacity="1.00" d=" M 39.22 4.14 C 40.74 4.08 40.92 6.29 41.62 7.31 C 46.45 19.96 52.63 32.13 57.00 44.92 C 57.20 46.25 57.46 47.58 57.64 48.92 C 54.91 50.39 51.84 48.85 48.94 48.96 C 48.70 48.47 48.20 47.49 47.96 47.00 C 47.32 45.68 46.70 44.35 46.10 43.01 C 45.29 40.58 44.17 38.28 43.11 35.96 C 40.56 28.88 36.99 22.20 34.78 15.01 C 36.14 11.35 37.70 7.75 39.22 4.14 Z" />
</g>
<g id="#c3da02ff">
<path fill="#c3da02" opacity="1.00" d=" M 29.01 28.92 C 30.73 24.30 32.29 19.03 34.78 15.01 C 36.99 22.20 40.56 28.88 43.11 35.96 C 38.10 35.78 32.89 36.52 28.07 34.79 C 28.20 32.81 28.72 30.88 29.01 28.92 Z" />
</g>
<g id="#9ec402fe">
<path fill="#9ec402" opacity="1.00" d=" M 23.72 41.34 C 25.30 37.23 26.32 32.20 29.01 28.92 C 28.72 30.88 28.20 32.81 28.07 34.79 C 32.89 36.52 38.10 35.78 43.11 35.96 C 44.17 38.28 45.29 40.58 46.10 43.01 C 39.87 42.34 33.62 41.69 27.36 42.46 C 26.02 42.73 24.89 41.83 23.72 41.34 Z" />
</g>
<g id="#88b701ff">
<path fill="#88b701" opacity="1.00" d=" M 21.85 44.99 C 22.39 44.00 22.35 40.82 23.72 41.34 C 24.89 41.83 26.02 42.73 27.36 42.46 C 33.62 41.69 39.87 42.34 46.10 43.01 C 46.70 44.35 47.32 45.68 47.96 47.00 C 39.39 46.95 30.83 47.17 22.27 46.87 C 22.16 46.40 21.95 45.46 21.85 44.99 Z" />
</g>
<g id="#75ab01fe">
<path fill="#75ab01" opacity="1.00" d=" M 18.74 52.36 C 19.80 50.00 20.28 46.77 21.85 44.99 C 21.95 45.46 22.16 46.40 22.27 46.87 C 30.83 47.17 39.39 46.95 47.96 47.00 C 48.20 47.49 48.70 48.47 48.94 48.96 C 49.26 50.00 49.61 51.04 49.97 52.08 C 39.58 51.08 28.95 49.87 18.74 52.36 Z" />
</g>
<g id="#aaca77fe">
<path fill="#aaca77" opacity="1.00" d=" M 57.00 44.92 C 60.69 50.09 62.27 57.13 65.03 63.07 C 65.02 64.65 65.09 66.43 62.96 66.20 C 60.24 65.37 57.48 64.48 55.05 62.98 C 53.39 60.13 52.26 57.03 50.90 54.04 C 50.67 53.55 50.20 52.57 49.97 52.08 C 49.61 51.04 49.26 50.00 48.94 48.96 C 51.84 48.85 54.91 50.39 57.64 48.92 C 57.46 47.58 57.20 46.25 57.00 44.92 Z" />
</g>
<g id="#67a201fe">
<path fill="#67a201" opacity="1.00" d=" M 18.74 52.36 C 28.95 49.87 39.58 51.08 49.97 52.08 C 50.20 52.57 50.67 53.55 50.90 54.04 C 41.71 54.98 32.41 53.28 23.19 54.31 C 21.65 54.66 18.87 53.53 18.87 55.95 C 17.85 57.02 17.62 60.13 15.71 59.34 C 16.74 57.16 17.27 53.81 18.74 52.36 Z" />
</g>
<g id="#5f9c03fc">
<path fill="#5f9c03" opacity="1.00" d=" M 18.87 55.95 C 18.87 53.53 21.65 54.66 23.19 54.31 C 32.41 53.28 41.71 54.98 50.90 54.04 C 52.26 57.03 53.39 60.13 55.05 62.98 C 49.53 61.66 44.65 58.04 39.07 57.06 C 36.37 58.21 33.72 59.53 30.85 60.19 C 30.18 57.77 29.88 53.76 25.11 57.41 C 22.85 58.04 20.79 57.07 18.87 55.95 Z" />
</g>
<g id="#559303fa">
<path fill="#559303" opacity="0.98" d=" M 18.87 55.95 C 20.79 57.07 22.85 58.04 25.11 57.41 C 29.88 53.76 30.18 57.77 30.85 60.19 L 30.87 60.80 C 24.47 62.88 18.58 66.53 12.07 68.10 C 13.32 65.34 14.17 61.17 15.71 59.34 C 17.62 60.13 17.85 57.02 18.87 55.95 Z" />
</g>
<g id="#78991ef2">
<path fill="#78991e" opacity="0.95" d=" M 65.03 63.07 C 66.82 63.42 66.28 66.56 67.00 68.06 C 65.64 67.68 63.70 67.56 62.96 66.20 C 65.09 66.43 65.02 64.65 65.03 63.07 Z" />
</g>
</svg>
