<?xml version="1.0" encoding="UTF-8" ?>
<!DOCTYPE svg PUBLIC "-//W3C//DTD SVG 1.1//EN" "http://www.w3.org/Graphics/SVG/1.1/DTD/svg11.dtd">
<svg width="36pt" height="36pt" viewBox="0 0 36 36" version="1.1" xmlns="http://www.w3.org/2000/svg">
<g id="#ffffffff">
<path fill="#ffffff" opacity="1.00" d=" M 3.37 16.68 C 1.78 9.25 7.49 1.44 15.00 0.60 C 21.42 -0.38 28.11 3.92 29.87 10.16 C 31.39 14.70 30.04 19.82 26.92 23.36 C 29.04 26.93 33.70 29.49 33.47 34.04 C 33.11 34.45 32.37 35.25 32.01 35.66 C 27.15 35.34 25.37 29.66 22.04 26.79 C 14.39 30.21 4.64 24.96 3.37 16.68 M 14.32 4.37 C 10.70 5.31 7.65 8.38 6.94 12.08 C 5.71 17.10 9.19 22.64 14.19 23.86 C 20.28 25.87 27.23 20.42 26.85 14.05 C 27.10 7.71 20.37 2.63 14.32 4.37 Z" />
<path fill="#ffffff" opacity="1.00" d=" M 15.10 12.17 C 15.36 10.32 14.11 6.44 17.18 6.56 C 19.01 7.87 18.18 10.27 18.40 12.18 C 20.45 12.42 23.59 11.32 24.41 14.00 C 23.26 16.38 20.43 15.23 18.35 15.48 C 18.12 17.59 19.46 22.05 16.04 21.77 C 14.25 20.29 15.47 17.53 15.11 15.52 C 13.40 15.49 11.68 15.55 9.97 15.38 C 8.73 14.86 8.64 12.62 10.11 12.35 C 11.76 12.08 13.44 12.21 15.10 12.17 Z" />
</g>
</svg>
