<?xml version="1.0" encoding="UTF-8" ?>
<!DOCTYPE svg PUBLIC "-//W3C//DTD SVG 1.1//EN" "http://www.w3.org/Graphics/SVG/1.1/DTD/svg11.dtd">
<svg width="230pt" height="230pt" viewBox="0 0 230 230" version="1.1" xmlns="http://www.w3.org/2000/svg">
<g id="#ffffffff">
<path fill="#ffffff" opacity="1.00" d=" M 104.88 15.08 C 111.62 14.95 118.38 14.95 125.12 15.08 C 125.12 21.89 125.10 28.71 125.13 35.52 C 146.06 38.23 165.72 49.48 178.49 66.31 C 187.14 77.44 192.57 90.91 194.46 104.86 C 201.28 104.92 208.10 104.88 214.92 104.88 C 215.05 111.62 215.05 118.38 214.92 125.12 C 208.09 125.14 201.26 125.04 194.43 125.17 C 191.79 146.12 180.45 165.74 163.65 178.52 C 152.53 187.14 139.08 192.58 125.15 194.46 C 125.07 201.28 125.13 208.10 125.12 214.92 C 118.38 215.05 111.62 215.05 104.88 214.92 C 104.88 208.10 104.91 201.28 104.86 194.47 C 86.24 192.03 68.58 182.93 55.97 169.00 C 44.83 156.96 37.69 141.40 35.54 125.15 C 28.72 125.07 21.90 125.13 15.08 125.12 C 14.95 118.38 14.94 111.62 15.08 104.88 C 21.90 104.88 28.72 104.91 35.53 104.87 C 37.89 86.94 46.37 69.87 59.50 57.40 C 71.72 45.45 87.90 37.76 104.84 35.56 C 104.95 28.73 104.86 21.91 104.88 15.08 M 106.62 55.77 C 87.18 58.41 69.62 71.39 61.17 89.05 C 54.81 101.97 53.47 117.26 57.41 131.10 C 61.87 147.20 73.48 161.16 88.45 168.54 C 101.83 175.31 117.82 176.62 132.15 172.27 C 148.55 167.43 162.51 155.10 169.51 139.52 C 175.55 126.31 176.44 110.85 172.02 97.02 C 167.18 81.45 155.56 68.20 140.90 61.14 C 130.35 55.96 118.25 54.15 106.62 55.77 Z" />
<path fill="#ffffff" opacity="1.00" d=" M 106.57 75.78 C 116.63 73.64 127.48 75.47 136.20 80.94 C 144.66 86.10 150.98 94.58 153.61 104.13 C 156.62 114.83 154.98 126.74 149.08 136.17 C 143.73 144.96 134.78 151.40 124.82 153.89 C 113.52 156.75 101.00 154.45 91.56 147.57 C 82.54 141.18 76.45 130.83 75.22 119.84 C 73.88 109.48 76.85 98.63 83.30 90.40 C 88.98 82.96 97.42 77.73 106.57 75.78 Z" />
</g>
</svg>
