<?xml version="1.0" encoding="UTF-8" ?>
<!DOCTYPE svg PUBLIC "-//W3C//DTD SVG 1.1//EN" "http://www.w3.org/Graphics/SVG/1.1/DTD/svg11.dtd">
<svg width="290pt" height="290pt" viewBox="0 0 290 290" version="1.1" xmlns="http://www.w3.org/2000/svg">
<g id="#ffffffff">
<path fill="#ffffff" opacity="1.00" d=" M 119.19 25.40 C 121.08 23.67 123.90 24.82 126.18 24.45 C 126.54 24.23 127.25 23.77 127.61 23.54 C 133.76 23.46 139.91 23.48 146.07 23.53 C 146.51 23.76 147.38 24.22 147.82 24.45 C 150.10 24.80 152.86 23.73 154.80 25.35 C 156.15 25.58 157.74 25.23 158.80 26.35 C 160.14 26.60 161.76 26.21 162.80 27.35 C 164.19 27.58 165.84 27.21 166.87 28.47 C 167.11 28.50 167.59 28.56 167.83 28.59 C 169.09 29.25 170.45 29.73 171.78 30.26 C 172.83 30.45 173.85 30.76 174.83 31.17 C 175.31 31.44 176.28 31.97 176.77 32.23 C 177.26 32.49 178.25 33.01 178.74 33.27 C 179.81 33.74 180.87 34.23 181.95 34.69 C 183.89 35.91 185.73 37.30 187.80 38.30 C 190.87 39.66 192.95 42.52 196.00 43.80 C 197.70 45.68 199.73 47.25 201.21 49.32 C 201.75 49.40 202.83 49.56 203.37 49.64 C 203.45 50.18 203.62 51.27 203.70 51.82 C 206.47 53.91 208.63 56.68 211.20 58.99 C 211.66 60.86 213.28 61.99 214.37 63.47 C 215.94 66.11 217.71 68.63 219.51 71.11 C 219.49 71.37 219.45 71.90 219.43 72.17 C 220.55 73.85 221.70 75.52 222.82 77.21 C 223.31 78.56 223.72 79.94 224.41 81.21 C 224.44 81.44 224.51 81.90 224.54 82.13 C 225.23 83.04 225.63 84.06 225.76 85.20 C 226.24 86.14 226.58 87.14 226.76 88.20 C 227.24 89.15 227.58 90.15 227.76 91.20 C 228.24 92.14 228.57 93.14 228.76 94.19 C 229.87 95.63 229.39 97.52 229.60 99.19 C 231.33 101.07 230.17 103.90 230.55 106.18 C 230.78 106.56 231.24 107.33 231.47 107.71 C 231.52 114.93 231.54 122.15 231.46 129.37 C 231.24 129.73 230.79 130.45 230.56 130.82 C 230.26 132.79 231.18 135.21 229.59 136.81 C 229.35 138.47 229.96 140.45 228.65 141.80 C 228.42 143.14 228.71 144.68 227.76 145.81 C 227.56 146.85 227.23 147.85 226.76 148.80 C 226.63 149.94 226.22 150.96 225.54 151.87 C 225.51 152.10 225.44 152.56 225.41 152.79 C 224.77 154.08 224.28 155.44 223.76 156.78 C 223.20 158.16 222.48 159.47 221.70 160.74 C 221.23 161.80 220.75 162.86 220.32 163.94 C 218.05 167.69 215.25 171.11 213.18 174.98 C 212.12 176.11 210.98 177.18 209.83 178.23 C 209.54 180.43 207.70 181.70 205.81 182.52 L 207.20 182.45 C 207.72 185.90 211.14 187.66 213.37 189.99 C 213.46 190.43 213.62 191.32 213.70 191.76 C 214.95 192.81 216.13 193.93 217.38 194.98 C 217.46 195.43 217.62 196.33 217.70 196.77 C 219.80 198.26 221.28 200.44 223.36 201.96 C 223.46 202.42 223.65 203.35 223.75 203.81 C 225.33 205.16 226.81 206.62 228.35 208.01 C 228.44 208.47 228.64 209.38 228.74 209.84 C 229.99 210.83 231.16 211.93 232.37 212.98 C 232.45 213.42 232.61 214.32 232.69 214.76 C 234.79 216.27 236.29 218.45 238.38 219.98 C 238.46 220.43 238.63 221.32 238.71 221.76 C 240.28 223.08 241.75 224.51 243.18 225.99 C 243.78 227.63 244.75 229.14 246.35 229.98 C 246.75 231.07 247.17 232.16 247.64 233.23 C 248.48 234.48 249.16 235.82 249.79 237.20 C 250.24 238.15 250.57 239.15 250.77 240.20 C 251.24 241.14 251.57 242.13 251.76 243.18 C 253.30 246.91 252.21 251.19 252.46 255.14 C 252.29 255.56 251.94 256.40 251.77 256.82 C 251.53 257.83 251.24 258.83 250.89 259.81 C 249.30 262.20 247.20 264.29 244.81 265.88 C 243.83 266.24 242.83 266.53 241.82 266.76 C 239.20 267.91 235.72 268.05 233.19 266.66 C 231.77 266.40 230.06 266.83 229.09 265.45 L 228.23 265.54 C 227.25 264.88 226.25 264.24 225.25 263.63 C 223.83 263.26 222.39 262.66 221.38 261.56 C 218.13 258.38 215.06 255.00 211.65 252.00 C 211.56 251.56 211.37 250.68 211.28 250.25 C 209.69 248.88 208.24 247.37 206.64 246.03 C 206.56 245.58 206.39 244.67 206.30 244.22 C 204.19 242.72 202.70 240.55 200.62 239.01 C 200.54 238.57 200.38 237.68 200.30 237.24 C 199.05 236.19 197.87 235.07 196.63 234.03 C 196.54 233.58 196.37 232.68 196.28 232.24 C 194.69 230.88 193.23 229.37 191.64 228.01 C 191.55 227.55 191.38 226.64 191.29 226.18 C 189.16 224.72 187.69 222.54 185.63 221.00 C 185.53 220.55 185.35 219.65 185.26 219.20 C 183.67 217.84 182.19 216.38 180.64 214.98 C 180.55 214.54 180.38 213.66 180.29 213.22 C 178.42 211.63 176.42 210.06 175.25 207.85 C 174.67 206.86 174.09 205.86 173.50 204.88 C 173.51 205.26 173.53 206.02 173.54 206.39 C 172.08 206.19 170.84 206.54 169.82 207.44 C 169.58 207.46 169.11 207.50 168.87 207.52 C 167.85 208.79 166.19 208.42 164.80 208.66 C 163.89 209.24 162.89 209.61 161.81 209.76 C 160.67 210.69 159.15 210.43 157.81 210.66 C 156.48 211.99 154.46 211.33 152.81 211.60 C 149.63 213.65 145.39 211.92 141.81 212.54 C 139.44 214.15 135.58 214.06 133.18 212.55 C 129.60 211.90 125.32 213.69 122.19 211.56 C 120.22 211.27 117.83 212.14 116.20 210.65 C 114.84 210.44 113.33 210.68 112.19 209.76 C 111.11 209.61 110.11 209.25 109.20 208.66 C 107.82 208.39 106.13 208.83 105.13 207.53 C 104.89 207.50 104.40 207.44 104.16 207.42 C 102.90 206.73 101.54 206.29 100.22 205.75 C 98.77 205.46 97.41 204.88 96.04 204.34 C 94.08 203.05 92.12 201.74 90.16 200.44 C 89.90 200.46 89.36 200.49 89.10 200.51 C 87.48 199.28 85.82 198.10 84.07 197.08 C 81.86 195.41 79.25 194.19 77.80 191.70 C 77.34 191.62 76.43 191.44 75.97 191.35 C 72.06 187.05 67.91 182.96 63.65 179.00 C 63.56 178.56 63.38 177.68 63.29 177.24 C 62.05 176.24 60.90 175.15 59.82 173.98 C 58.41 171.12 56.30 168.68 54.68 165.95 C 54.24 164.88 53.76 163.84 53.37 162.76 C 52.64 161.36 51.81 160.02 50.74 158.86 C 50.62 157.72 50.23 156.69 49.58 155.78 C 49.55 155.55 49.49 155.10 49.46 154.87 C 48.78 153.96 48.37 152.94 48.24 151.80 C 47.75 150.86 47.41 149.86 47.24 148.80 C 46.76 147.85 46.42 146.85 46.24 145.80 C 45.77 144.85 45.43 143.86 45.24 142.81 C 44.12 141.38 44.62 139.47 44.40 137.81 C 42.97 136.53 43.68 134.47 43.40 132.82 C 43.18 132.41 42.74 131.58 42.53 131.17 C 42.48 123.08 42.48 114.98 42.53 106.89 C 42.75 106.46 43.21 105.60 43.43 105.18 C 43.74 103.20 42.82 100.78 44.40 99.19 C 44.61 97.52 44.12 95.62 45.24 94.19 C 45.39 93.11 45.76 92.11 46.34 91.20 C 46.57 89.85 46.29 88.33 47.23 87.19 C 47.45 86.15 47.78 85.16 48.21 84.20 C 48.75 83.18 49.27 82.15 49.78 81.11 C 50.28 79.82 50.69 78.49 51.26 77.23 C 51.75 76.17 52.24 75.12 52.69 74.06 C 53.90 72.11 55.28 70.27 56.31 68.21 C 57.60 65.09 60.52 63.06 61.81 59.99 C 63.59 58.10 65.95 56.58 66.84 54.02 C 70.01 49.90 74.92 47.79 78.00 43.62 C 78.46 43.54 79.37 43.39 79.83 43.32 C 82.05 39.97 86.21 38.69 89.24 36.17 C 89.73 35.94 90.73 35.47 91.23 35.24 C 91.73 34.99 92.72 34.48 93.22 34.23 C 93.72 33.98 94.73 33.47 95.23 33.22 C 95.73 32.98 96.73 32.49 97.23 32.24 C 97.72 31.98 98.70 31.47 99.19 31.21 C 100.58 30.68 102.03 30.28 103.30 29.50 L 104.08 29.54 C 104.98 28.79 106.01 28.35 107.19 28.24 C 108.33 27.30 109.85 27.57 111.20 27.34 C 112.12 26.76 113.11 26.40 114.19 26.24 C 115.62 25.12 117.53 25.61 119.19 25.40 M 121.80 49.60 C 120.91 50.25 119.92 50.64 118.81 50.76 C 117.66 51.68 116.14 51.45 114.79 51.66 C 113.53 52.29 112.19 52.72 110.89 53.23 C 109.85 53.73 108.82 54.25 107.78 54.75 C 101.95 56.56 97.65 61.27 92.22 63.91 C 89.12 67.04 86.06 70.20 82.85 73.23 C 81.30 76.65 78.13 79.20 76.69 82.80 C 75.71 84.54 74.56 86.18 73.44 87.84 C 73.44 88.08 73.44 88.57 73.44 88.81 C 72.73 90.07 72.28 91.45 71.74 92.79 C 71.58 93.85 71.25 94.85 70.76 95.80 C 70.59 96.86 70.25 97.86 69.76 98.80 C 69.62 99.90 69.24 100.90 68.60 101.80 C 68.30 103.46 69.08 105.59 67.53 106.81 C 66.99 109.72 68.61 113.37 66.53 115.80 C 66.51 117.26 66.51 118.73 66.54 120.20 C 68.60 122.65 67.00 126.27 67.53 129.19 C 69.06 130.43 68.32 132.52 68.59 134.19 C 69.79 135.22 69.42 136.84 69.66 138.21 C 70.27 139.52 70.77 140.88 71.41 142.18 C 71.45 142.41 71.52 142.89 71.55 143.13 C 72.32 144.35 72.70 145.76 73.22 147.10 C 74.01 148.82 75.05 150.44 75.65 152.24 C 77.18 155.79 80.31 158.36 81.85 161.79 C 86.06 165.81 90.13 169.97 94.22 174.11 C 97.28 175.49 99.77 177.84 102.76 179.35 C 104.17 179.80 105.49 180.49 106.73 181.28 C 107.78 181.77 108.83 182.27 109.89 182.76 C 111.18 183.27 112.51 183.71 113.79 184.26 C 114.88 184.38 115.88 184.74 116.80 185.34 C 118.15 185.57 119.74 185.24 120.80 186.35 C 122.16 186.60 123.84 186.16 124.81 187.47 C 127.41 187.92 130.66 186.50 132.81 188.46 C 136.27 188.53 139.73 188.53 143.19 188.46 C 144.74 186.78 147.21 187.75 149.19 187.44 C 150.44 185.94 152.53 186.68 154.20 186.40 C 155.09 185.76 156.10 185.37 157.20 185.24 C 158.14 184.75 159.14 184.42 160.20 184.24 C 161.14 183.73 162.15 183.42 163.22 183.29 C 163.71 183.01 164.70 182.47 165.19 182.19 C 165.71 181.97 166.76 181.54 167.28 181.32 C 168.23 180.73 169.18 180.13 170.12 179.52 C 170.38 179.53 170.90 179.55 171.16 179.55 C 174.05 177.80 176.67 175.58 179.73 174.11 C 183.87 170.00 187.93 165.80 192.15 161.78 C 193.86 158.35 196.74 155.53 198.61 152.10 L 198.41 151.23 C 199.13 150.20 199.84 149.17 200.58 148.16 L 200.51 147.24 C 200.95 146.55 201.38 145.85 201.81 145.15 C 202.29 143.84 202.69 142.49 203.25 141.21 C 203.39 140.12 203.76 139.12 204.34 138.20 C 204.57 136.83 204.22 135.23 205.40 134.19 C 205.70 132.53 204.92 130.41 206.47 129.19 C 207.02 126.28 205.37 122.62 207.47 120.20 C 207.48 118.73 207.48 117.27 207.46 115.80 C 205.40 113.35 207.00 109.73 206.47 106.81 C 204.94 105.56 205.67 103.47 205.40 101.80 C 204.75 100.91 204.36 99.91 204.24 98.80 C 203.74 97.85 203.42 96.85 203.26 95.79 C 202.72 94.45 202.23 93.08 201.59 91.79 C 201.55 91.56 201.47 91.11 201.44 90.88 C 200.40 88.40 199.33 85.94 197.49 83.92 C 197.51 83.65 197.54 83.12 197.55 82.85 C 195.66 79.47 192.62 76.88 191.11 73.27 C 187.98 70.15 184.85 67.03 181.74 63.89 C 179.25 62.52 176.53 61.22 174.81 58.87 C 173.88 58.47 172.98 58.02 172.10 57.53 C 171.86 57.51 171.39 57.49 171.15 57.48 C 170.18 56.85 169.21 56.25 168.23 55.65 C 167.70 55.44 166.63 55.01 166.09 54.79 C 165.58 54.45 164.57 53.77 164.06 53.43 L 163.29 53.47 C 161.99 52.75 160.58 52.29 159.21 51.74 C 158.12 51.62 157.11 51.25 156.20 50.66 C 154.84 50.40 153.21 50.80 152.19 49.60 C 150.52 49.31 148.43 50.06 147.19 48.54 C 140.40 48.47 133.60 48.47 126.81 48.54 C 125.58 50.08 123.46 49.30 121.80 49.60 Z" />
<path fill="#ffffff" opacity="1.00" d=" M 88.04 108.89 C 89.74 107.95 91.18 106.48 93.18 106.21 C 94.93 105.12 97.03 105.57 98.97 105.49 C 124.65 105.51 150.33 105.51 176.00 105.48 C 177.97 105.55 180.05 105.20 181.88 106.12 C 182.39 106.48 183.40 107.20 183.91 107.56 C 184.16 107.52 184.67 107.46 184.93 107.43 C 186.11 109.13 187.82 110.39 188.90 112.18 C 189.87 114.89 189.88 118.11 188.89 120.81 C 187.29 123.20 185.19 125.28 182.81 126.89 C 181.58 127.57 180.15 127.48 178.81 127.67 C 178.41 127.87 177.61 128.27 177.21 128.47 C 151.48 128.55 125.75 128.45 100.02 128.52 C 98.39 128.41 96.53 128.90 95.20 127.66 C 93.85 127.48 92.42 127.57 91.19 126.89 C 88.81 125.28 86.70 123.20 85.12 120.81 C 84.24 118.44 83.82 115.32 85.43 113.18 C 85.46 112.65 85.52 111.59 85.55 111.06 C 86.38 110.34 87.21 109.62 88.04 108.89 Z" />
</g>
</svg>
