<?xml version="1.0" encoding="UTF-8" ?>
<!DOCTYPE svg PUBLIC "-//W3C//DTD SVG 1.1//EN" "http://www.w3.org/Graphics/SVG/1.1/DTD/svg11.dtd">
<svg width="290pt" height="290pt" viewBox="0 0 290 290" version="1.1" xmlns="http://www.w3.org/2000/svg">
<g id="#ffffffff">
<path fill="#ffffff" opacity="1.00" d=" M 119.12 25.37 C 121.14 23.86 123.79 24.71 126.11 24.45 C 126.50 24.23 127.30 23.79 127.70 23.57 C 133.83 23.44 139.97 23.48 146.10 23.54 C 146.55 23.76 147.45 24.20 147.90 24.42 C 149.89 24.64 152.17 24.02 153.88 25.37 C 155.56 25.55 157.40 25.28 158.88 26.28 C 160.22 26.50 161.60 26.60 162.88 27.12 C 163.87 27.50 164.86 27.89 165.84 28.31 C 167.24 28.52 168.75 28.47 169.95 29.38 C 170.15 29.45 170.56 29.58 170.76 29.64 C 172.13 30.22 173.53 30.71 174.90 31.26 C 175.41 31.59 176.43 32.24 176.94 32.57 L 177.66 32.50 C 179.01 33.37 180.43 34.11 181.90 34.75 C 187.16 37.82 192.02 41.56 197.06 44.90 C 201.51 49.25 205.75 53.82 210.35 58.02 C 210.44 58.44 210.62 59.30 210.71 59.72 C 212.25 61.01 213.85 62.34 214.73 64.20 C 216.26 67.36 218.53 70.07 220.31 73.09 C 220.74 74.13 221.20 75.16 221.65 76.20 C 222.38 77.49 223.11 78.79 223.81 80.11 C 224.15 81.13 224.46 82.16 224.73 83.21 C 225.30 84.55 225.79 85.93 226.38 87.27 C 226.44 87.46 226.56 87.86 226.62 88.05 C 227.51 89.24 227.47 90.74 227.72 92.13 C 228.48 93.33 228.48 94.77 228.72 96.13 C 229.49 97.33 229.47 98.77 229.72 100.13 C 231.05 102.21 230.32 104.79 230.56 107.10 C 230.78 107.54 231.24 108.44 231.46 108.89 C 231.52 115.03 231.57 121.18 231.43 127.32 C 231.21 127.71 230.77 128.50 230.55 128.89 C 230.28 131.20 231.14 133.86 229.63 135.88 C 229.48 137.56 229.61 139.32 228.87 140.88 C 228.50 141.88 228.11 142.86 227.69 143.84 C 227.49 145.20 227.43 146.60 226.84 147.87 C 226.52 148.87 226.16 149.85 225.78 150.83 C 225.50 151.83 225.18 152.81 224.83 153.79 C 224.12 155.10 223.43 156.41 222.75 157.73 C 222.12 159.20 221.42 160.64 220.43 161.90 L 220.58 162.72 C 219.85 163.76 219.16 164.83 218.42 165.88 L 218.48 166.69 C 218.06 167.42 217.66 168.14 217.25 168.87 C 215.69 170.21 214.47 171.88 213.76 173.81 C 213.35 174.72 212.73 175.42 211.87 175.93 C 209.93 178.29 207.74 180.44 206.20 183.10 C 207.91 184.76 209.60 186.43 211.35 188.04 C 211.45 188.47 211.64 189.32 211.74 189.75 C 213.65 191.45 215.44 193.29 217.34 195.01 C 217.43 195.44 217.62 196.30 217.72 196.73 C 219.28 198.13 220.78 199.60 222.34 201.00 C 222.44 201.44 222.62 202.30 222.72 202.73 C 224.28 204.13 225.78 205.60 227.34 207.01 C 227.44 207.44 227.63 208.32 227.73 208.75 C 229.29 210.14 230.79 211.61 232.35 213.01 C 232.44 213.44 232.62 214.32 232.71 214.76 C 233.94 215.82 235.14 216.92 236.37 217.99 C 236.45 218.43 236.63 219.30 236.72 219.73 C 238.61 221.39 240.41 223.17 242.14 225.01 C 244.00 228.28 246.69 231.00 248.55 234.29 L 248.38 235.12 C 248.77 235.63 249.54 236.63 249.93 237.14 C 250.23 238.13 250.52 239.13 250.80 240.14 C 251.45 241.37 251.48 242.78 251.71 244.13 C 253.06 247.75 252.86 252.17 251.82 255.87 C 251.51 256.85 251.17 257.83 250.80 258.80 C 250.56 259.30 250.09 260.30 249.86 260.80 C 248.58 262.91 246.69 264.50 244.85 266.10 C 243.53 266.34 242.19 266.50 240.86 266.69 C 238.55 267.94 235.46 267.94 233.14 266.71 C 231.78 266.50 230.42 266.38 229.12 265.94 C 227.00 265.16 225.21 263.76 223.22 262.72 C 218.43 259.56 215.10 254.62 210.65 251.00 C 210.56 250.57 210.38 249.71 210.29 249.28 C 208.73 247.87 207.22 246.40 205.65 245.00 C 205.56 244.57 205.37 243.71 205.28 243.28 C 203.36 241.56 201.56 239.71 199.65 237.97 C 199.56 237.55 199.38 236.70 199.29 236.28 C 197.72 234.87 196.22 233.39 194.65 231.99 C 194.56 231.55 194.37 230.68 194.27 230.25 C 192.70 228.85 191.20 227.38 189.65 225.98 C 189.55 225.54 189.36 224.68 189.27 224.25 C 187.70 222.85 186.20 221.38 184.65 219.98 C 184.55 219.55 184.36 218.68 184.27 218.24 C 182.71 216.85 181.21 215.39 179.65 214.00 C 179.56 213.57 179.38 212.70 179.28 212.26 C 177.08 210.00 173.93 208.21 173.13 204.98 C 172.57 205.50 171.45 206.54 170.89 207.06 C 169.87 207.29 168.85 207.51 167.82 207.71 C 166.85 208.13 165.87 208.51 164.88 208.87 C 163.60 209.41 162.22 209.50 160.87 209.72 C 159.67 210.48 158.23 210.47 156.88 210.72 C 155.40 211.73 153.56 211.44 151.88 211.63 C 148.91 213.44 145.19 212.07 141.91 212.55 C 138.91 214.39 135.16 213.23 131.82 213.45 C 131.39 213.22 130.53 212.77 130.10 212.54 C 127.15 212.14 123.77 213.35 121.12 211.63 C 119.44 211.44 117.60 211.74 116.12 210.72 C 114.77 210.48 113.33 210.48 112.13 209.72 C 110.78 209.49 109.39 209.42 108.13 208.83 C 107.13 208.51 106.14 208.18 105.15 207.82 C 104.07 207.48 103.03 207.06 102.01 206.56 L 101.40 206.43 C 100.00 205.83 98.56 205.34 97.15 204.78 C 96.63 204.44 95.61 203.76 95.09 203.41 L 94.30 203.57 C 92.23 202.16 90.15 200.75 88.07 199.37 L 87.33 199.60 C 84.04 197.70 81.30 194.99 78.00 193.15 C 74.93 190.00 71.65 187.05 68.77 183.72 C 68.24 183.63 67.18 183.44 66.65 183.35 C 66.57 182.84 66.39 181.80 66.31 181.29 C 64.75 179.94 63.28 178.49 61.86 177.00 C 60.28 174.47 59.03 171.54 56.43 169.87 C 56.47 169.62 56.56 169.13 56.60 168.89 C 55.25 166.85 53.88 164.84 52.50 162.83 C 52.50 162.59 52.50 162.11 52.50 161.88 C 51.62 160.58 50.91 159.18 50.22 157.78 C 49.73 156.52 49.30 155.24 48.78 153.99 C 48.21 152.62 47.59 151.27 47.19 149.83 C 46.83 148.84 46.50 147.84 46.22 146.83 C 45.84 145.85 45.48 144.87 45.15 143.88 C 44.36 142.33 44.52 140.56 44.37 138.89 C 43.20 137.47 43.58 135.56 43.37 133.88 C 41.56 130.91 42.92 127.18 42.46 123.90 C 41.22 122.51 41.51 120.67 41.46 118.97 C 41.56 116.98 41.06 114.77 42.46 113.09 C 42.92 109.81 41.56 106.09 43.37 103.11 C 43.58 101.43 43.21 99.54 44.37 98.11 C 44.52 96.44 44.36 94.67 45.15 93.12 C 45.48 92.13 45.84 91.14 46.22 90.17 C 46.50 89.15 46.83 88.15 47.20 87.16 C 47.50 86.15 47.85 85.15 48.24 84.17 C 48.49 83.15 48.76 82.14 49.06 81.13 C 49.45 80.63 50.23 79.63 50.62 79.13 L 50.47 78.33 C 51.09 77.30 51.69 76.26 52.30 75.22 C 52.61 74.67 53.25 73.58 53.56 73.03 L 53.43 72.29 C 56.09 68.08 59.19 64.14 61.84 59.97 C 62.96 58.85 64.10 57.77 65.29 56.72 C 65.38 56.30 65.56 55.45 65.65 55.02 C 68.57 52.44 71.20 49.56 74.01 46.86 C 76.06 46.08 77.50 44.38 78.99 42.85 C 80.74 42.21 82.15 41.00 83.14 39.42 C 83.38 39.47 83.87 39.56 84.11 39.60 C 86.15 38.26 88.16 36.88 90.17 35.49 C 90.40 35.50 90.87 35.52 91.10 35.53 C 92.38 34.64 93.75 33.87 95.19 33.26 C 95.70 33.01 96.74 32.52 97.25 32.27 C 98.56 31.56 99.88 30.87 101.21 30.18 C 102.18 29.82 103.17 29.49 104.16 29.20 C 105.15 28.83 106.15 28.50 107.17 28.22 C 108.14 27.84 109.13 27.48 110.13 27.16 C 111.39 26.58 112.78 26.50 114.12 26.28 C 115.60 25.27 117.44 25.56 119.12 25.37 M 121.89 49.63 C 120.73 50.55 119.22 50.46 117.85 50.71 C 116.86 51.12 115.85 51.48 114.82 51.78 C 113.51 52.28 112.15 52.67 110.84 53.15 C 110.12 53.60 109.42 54.05 108.71 54.51 L 107.96 54.50 C 105.83 55.42 103.76 56.46 101.76 57.65 C 100.44 58.40 99.14 59.18 97.89 60.04 C 95.81 61.04 94.51 63.25 92.24 63.88 C 88.83 67.37 85.38 70.82 81.88 74.24 C 80.13 77.68 77.24 80.49 75.39 83.93 L 75.55 84.67 C 74.90 85.70 74.29 86.76 73.66 87.81 C 73.36 88.35 72.76 89.43 72.46 89.98 L 72.45 90.62 C 71.84 91.99 71.31 93.40 70.73 94.79 C 70.47 95.84 70.13 96.86 69.72 97.86 C 69.48 99.21 69.49 100.67 68.72 101.87 C 68.46 103.25 68.57 104.78 67.55 105.90 C 67.25 108.21 68.21 110.94 66.54 112.89 C 66.47 116.29 66.47 119.70 66.55 123.11 C 68.34 125.36 67.17 128.47 67.54 131.10 C 68.60 132.21 68.45 133.77 68.69 135.16 C 69.11 136.14 69.50 137.13 69.85 138.14 C 70.38 139.76 70.61 141.45 71.12 143.08 C 71.65 144.15 72.18 145.21 72.70 146.29 C 73.31 147.29 73.90 148.31 74.52 149.31 L 74.47 150.09 C 74.77 150.61 75.36 151.65 75.66 152.17 C 77.16 155.19 79.47 157.73 80.92 160.78 C 82.03 161.88 83.17 162.96 84.35 163.99 C 84.44 164.42 84.62 165.28 84.71 165.72 C 86.35 167.09 87.87 168.60 89.23 170.26 C 89.66 170.35 90.53 170.54 90.96 170.64 C 92.01 171.81 93.11 172.95 94.22 174.08 C 97.24 175.51 99.77 177.78 102.73 179.32 C 104.22 179.86 105.63 180.62 106.92 181.54 L 107.70 181.50 C 108.43 181.95 109.17 182.39 109.90 182.84 C 111.25 183.35 112.62 183.80 113.94 184.39 C 114.13 184.46 114.52 184.59 114.71 184.66 C 116.35 185.50 118.28 185.44 119.88 186.36 C 121.57 186.59 123.53 186.15 124.90 187.45 C 127.21 187.75 129.95 186.77 131.89 188.46 C 134.96 188.53 138.04 188.53 141.11 188.46 C 143.36 186.66 146.47 187.82 149.10 187.46 C 150.46 186.14 152.43 186.60 154.13 186.37 C 155.11 185.87 156.13 185.50 157.21 185.26 C 158.59 184.69 160.00 184.17 161.37 183.57 L 162.03 183.48 C 163.41 182.80 164.83 182.23 166.22 181.59 C 166.45 181.56 166.91 181.50 167.13 181.47 C 167.65 181.19 168.67 180.62 169.18 180.34 C 173.68 178.08 177.45 174.56 181.76 172.12 C 184.84 168.97 187.94 165.84 191.11 162.77 C 192.77 159.37 195.78 156.74 197.34 153.21 C 198.53 151.32 199.55 149.35 200.28 147.24 C 200.77 146.19 201.29 145.16 201.81 144.12 C 202.30 142.81 202.73 141.49 203.23 140.19 C 203.51 139.15 203.87 138.13 204.29 137.14 C 204.53 135.77 204.46 134.27 205.37 133.12 C 205.60 131.43 205.13 129.46 206.46 128.10 C 206.53 121.70 206.53 115.30 206.46 108.90 C 205.13 107.54 205.60 105.57 205.37 103.88 C 204.47 102.72 204.53 101.23 204.28 99.87 C 203.54 98.21 203.43 96.35 202.67 94.70 C 202.61 94.51 202.49 94.11 202.43 93.91 C 201.76 92.51 201.19 91.06 200.54 89.65 L 200.52 88.91 C 200.23 88.39 199.64 87.35 199.34 86.82 C 198.39 85.11 197.31 83.47 196.32 81.78 C 195.27 79.91 194.04 78.14 193.08 76.22 C 191.95 75.12 190.82 74.02 189.65 72.97 C 189.55 72.54 189.36 71.68 189.27 71.25 C 187.29 69.56 185.45 67.73 183.78 65.75 C 183.34 65.65 182.47 65.45 182.03 65.36 C 180.98 64.18 179.89 63.05 178.79 61.93 C 175.72 60.40 173.02 58.25 170.13 56.43 C 169.90 56.45 169.44 56.48 169.21 56.49 C 168.24 55.88 167.26 55.28 166.29 54.67 C 165.21 54.20 164.16 53.69 163.09 53.21 C 161.80 52.70 160.48 52.28 159.19 51.76 C 158.15 51.48 157.14 51.12 156.15 50.71 C 154.76 50.46 153.25 50.56 152.11 49.58 C 150.11 49.33 147.75 50.06 146.10 48.54 C 139.70 48.47 133.30 48.47 126.90 48.54 C 125.54 49.86 123.57 49.40 121.89 49.63 Z" />
<path fill="#ffffff" opacity="1.00" d=" M 125.51 73.14 C 126.97 70.60 129.20 68.68 131.14 66.53 C 134.38 66.59 137.69 66.14 140.88 66.94 C 142.72 68.38 144.33 70.09 145.49 72.13 C 145.51 72.36 145.55 72.82 145.57 73.06 C 146.54 74.21 146.47 75.74 146.71 77.13 C 147.74 78.57 147.48 80.37 147.52 82.03 C 147.45 89.53 147.57 97.04 147.45 104.55 C 155.64 104.43 163.84 104.56 172.03 104.48 C 173.66 104.52 175.45 104.27 176.87 105.28 C 178.20 105.49 179.53 105.67 180.85 105.94 C 183.11 107.80 185.18 109.87 187.04 112.13 C 187.77 114.97 187.71 118.02 187.08 120.87 C 185.30 122.97 183.43 125.05 180.96 126.35 C 179.67 126.80 178.44 127.60 177.03 127.50 C 167.17 127.47 157.30 127.56 147.44 127.44 C 147.52 137.99 147.56 148.54 147.44 159.09 C 147.28 159.53 146.98 160.42 146.83 160.87 C 146.50 161.87 146.16 162.87 145.79 163.86 C 144.71 166.69 142.69 169.03 139.94 170.34 C 137.58 171.66 134.71 172.01 132.19 170.94 C 130.83 169.89 129.44 168.86 127.91 168.08 C 126.90 166.38 125.75 164.75 125.08 162.88 C 124.28 161.03 124.52 158.99 124.48 157.04 C 124.56 147.17 124.42 137.31 124.56 127.44 C 113.62 127.53 102.68 127.54 91.75 127.45 C 91.32 127.21 90.44 126.75 90.01 126.52 L 89.27 126.55 C 86.78 125.22 84.78 123.21 83.45 120.73 L 83.49 119.99 C 81.79 117.75 82.41 114.67 82.97 112.13 C 84.81 109.86 86.90 107.81 89.14 105.93 C 90.46 105.67 91.79 105.49 93.13 105.29 C 94.56 104.27 96.34 104.51 97.99 104.48 C 106.84 104.56 115.70 104.43 124.55 104.55 C 124.43 96.04 124.56 87.53 124.48 79.02 C 124.55 77.34 124.17 75.44 125.43 74.06 C 125.45 73.83 125.49 73.37 125.51 73.14 Z" />
</g>
</svg>
