<svg xmlns="http://www.w3.org/2000/svg" width="230" height="230" xml:space="preserve"><path fill="#FFF" d="M128.391 184.91c-10.765 3.715-22.709 4.369-34.54 1.211-14.484-3.912-26.16-12.91-33.842-24.508l22.146-12.814-52.651-20.953L21 184.184l20.264-11.721c10.463 16.387 26.782 29.078 47.013 34.51 16.771 4.506 33.718 3.377 48.848-2.227l-8.734-19.836zM102.46 41.41c-19.417 1.006-38.51 8.93-53.225 23.84-12.197 12.359-19.584 27.654-22.183 43.576l21.562 2.201c2.084-11.195 7.414-21.906 16.002-30.634C75.17 69.73 88.759 64.02 102.638 63.067l.208 25.586 44.218-35.438L102.273 18l.187 23.41m50.542 38.309c8.666 7.387 15.295 17.347 18.579 29.143 3.983 14.465 2.161 29.092-3.931 41.598l-22.285-12.571 8.682 55.997 52.854-21.276-20.387-11.506c8.807-17.336 11.454-37.836 5.862-58.024-4.634-16.735-14.211-30.764-26.719-40.953l-12.655 17.592z"/></svg>