<svg xmlns="http://www.w3.org/2000/svg" width="230" height="230" xml:space="preserve"><path fill="#FFF" d="m115.162 114.667.002 16.565v62.65c0 12.116-9.319 0-9.319 0l-40.284-45.666H43.095s-6.889.448-6.889-7V88.105c0-7.023 6.889-7 6.889-7h22.521l40.229-45.659s9.319-10.615 9.319 0v62.652c0 11.069-.002 16.569-.002 16.569zm62.874 29.558-13.091-19.24-13.424 19.24c-1.939 2.688-3.58 4.605-4.926 5.752-1.347 1.146-3.051 1.719-5.125 1.719-2.291 0-4.242-.717-5.849-2.15-1.608-1.427-2.415-3.072-2.415-4.925 0-1.894 1.232-4.604 3.702-8.13l16.333-23.405-14.48-19.505c-2.513-3.218-3.768-6.017-3.768-8.397 0-1.851.746-3.46 2.242-4.826 1.5-1.367 3.464-2.05 5.888-2.05 2.116 0 3.87.595 5.258 1.785s3.011 3.063 4.86 5.62l11.699 16 11.373-16c1.896-2.645 3.537-4.541 4.926-5.687 1.387-1.146 3.119-1.719 5.188-1.719 2.381 0 4.354.673 5.918 2.017 1.563 1.345 2.35 2.964 2.35 4.859a8.54 8.54 0 0 1-.961 3.934c-.639 1.258-1.616 2.745-2.938 4.463l-14.48 19.505 16.332 23.405c2.558 3.655 3.832 6.413 3.832 8.266 0 1.894-.793 3.524-2.379 4.892-1.588 1.369-3.547 2.052-5.885 2.052-2.07 0-3.826-.595-5.254-1.788-1.433-1.189-3.073-3.09-4.926-5.687z"/></svg>