<?xml version="1.0" encoding="UTF-8" ?>
<!DOCTYPE svg PUBLIC "-//W3C//DTD SVG 1.1//EN" "http://www.w3.org/Graphics/SVG/1.1/DTD/svg11.dtd">
<svg width="36pt" height="36pt" viewBox="0 0 36 36" version="1.1" xmlns="http://www.w3.org/2000/svg">
<g id="#ffffffff">
<path fill="#ffffff" opacity="1.00" d=" M 9.53 2.62 C 15.59 -1.50 24.63 0.60 28.38 6.85 C 31.78 11.93 30.90 18.96 26.95 23.49 C 29.21 26.92 33.72 29.58 33.49 34.10 C 33.12 34.49 32.38 35.28 32.01 35.67 C 27.17 35.32 25.42 29.68 22.09 26.83 C 16.38 29.10 9.33 27.30 5.78 22.18 C 1.14 16.16 2.96 6.49 9.53 2.62 M 13.46 4.64 C 6.37 6.84 4.39 17.13 10.24 21.73 C 15.87 27.27 26.52 22.97 26.85 15.13 C 27.91 8.06 20.08 1.99 13.46 4.64 Z" />
<path fill="#ffffff" opacity="1.00" d=" M 10.36 12.47 C 14.72 12.21 19.14 12.16 23.50 12.49 C 25.24 12.99 24.45 15.74 22.76 15.53 C 18.70 15.67 14.60 15.79 10.54 15.46 C 8.96 15.26 8.76 12.81 10.36 12.47 Z" />
</g>
</svg>
