<svg xmlns="http://www.w3.org/2000/svg" width="230" height="230" xml:space="preserve"><path fill="#FFF" d="M204.363 159.762v30.789c0 3.758-1.405 6.826-5.002 6.826h-17.336c-3.66 0-6.102-3.044-6.102-6.812v-14.028c-1.244.243-2.285.392-2.967.392H52.525c-.771 0-1.991-.173-3.499-.492v14.125c0 3.774-2.447 6.818-6.094 6.818H25.589c-3.583 0-4.996-3.068-4.996-6.832V158.31c-2.035-7.108-5.361-20.99-5.522-36.705-.013-1.752 5.22-3.498 5.22-5.291 0-21.183 10.338-19.127 10.813-21.439 5.24-26.48 9.972-46.932 9.972-46.932 0-5.792 7.853-12.576 13.028-12.576 0 0 7.448-3.149 58.636-3.149 51.201 0 58.638 3.149 58.638 3.149 5.156 0 13.011 6.784 13.011 12.576 0 0 4.226 20.451 9.45 46.675.515 2.568 10.774.514 10.774 21.793 0 1.655 5.26 3.308 5.24 4.938-.087 16.999-3.66 31.889-5.49 38.413zM57.348 146.509c0 3.765 2.806 8.912 6.28 8.912h97.697c3.467 0 6.278-5.147 6.278-8.912v-5.245c0-3.77-12.033-17.306-14.937-17.306 0 0-17.376-2.619-40.022-2.619-22.775 0-40.369 2.619-40.369 2.619-2.915 0-14.935 13.536-14.935 17.306v5.245h.008zm-30.186-27.79c0 7.963 6.459 14.409 14.435 14.409 7.981 0 14.447-6.446 14.447-14.409 0-7.962-6.466-14.422-14.447-14.422-7.975 0-14.435 6.46-14.435 14.422zm149.484-69.213c0-3.763-4.983-6.812-8.567-6.812 0 0-24.798-3.15-55.605-3.15-30.815 0-55.067 3.15-55.067 3.15-3.596 0-8.572 3.043-8.572 6.812l-5.669 34.603c0 3.763 3.069 6.826 6.87 6.826 0 0 27.983-5.246 62.612-5.246 34.514 0 62.779 5.246 62.779 5.246 3.808 0 6.87-3.057 6.87-6.826l-5.651-34.603zm6.721 54.791c-7.975 0-14.454 6.46-14.454 14.422 0 7.963 6.479 14.409 14.454 14.409 7.98 0 14.429-6.446 14.429-14.409 0-7.962-6.446-14.422-14.429-14.422z"/></svg>