<svg xmlns="http://www.w3.org/2000/svg" width="230" height="230" xml:space="preserve"><path fill="#FFF" d="M115.564 30.719c-46.406 0-84.156 37.75-84.156 84.157s37.75 84.158 84.156 84.158c46.408 0 84.158-37.751 84.158-84.158s-37.749-84.157-84.158-84.157zm36.504 52.948c1.355 1.363 1.355 3.596 0 4.965l-22.928 22.944c.262 1.062.438 2.191.438 3.355 0 7.738-6.287 14.067-14.025 14.067-5.247 0-9.78-3.59-12.178-7.097H84.007c-1.932 0-3.506-1.745-3.506-3.67v-6.686c0-1.917 1.575-3.664 3.506-3.664h19.382c2.411-3.507 6.93-7.103 12.175-7.103 1.369 0 2.699.349 3.959.727l22.703-22.697a3.531 3.531 0 0 1 4.959 0l4.883 4.859zm-36.504 94.328c-34.874 0-63.118-28.261-63.118-63.119 0-34.86 28.244-63.118 63.118-63.118 34.859 0 63.119 28.258 63.119 63.118.001 34.858-28.258 63.119-63.119 63.119z"/></svg>