<?xml version="1.0" encoding="UTF-8" ?>
<!DOCTYPE svg PUBLIC "-//W3C//DTD SVG 1.1//EN" "http://www.w3.org/Graphics/SVG/1.1/DTD/svg11.dtd">
<svg width="230pt" height="230pt" viewBox="0 0 230 230" version="1.1" xmlns="http://www.w3.org/2000/svg">
<g id="#ffffffff">
<path fill="#ffffff" opacity="1.00" d=" M 76.01 31.46 C 81.61 31.70 87.40 30.30 92.80 32.38 C 98.73 34.49 105.40 36.74 111.41 33.55 C 108.87 37.92 105.49 41.73 101.74 45.10 C 104.58 48.37 107.83 51.27 111.63 53.38 C 102.00 59.35 92.30 49.42 82.28 51.49 C 80.92 58.40 82.23 65.53 81.56 72.51 C 80.86 73.83 79.92 74.99 79.04 76.18 C 78.18 74.96 77.24 73.78 76.56 72.45 C 75.98 58.81 77.04 45.08 76.01 31.46 Z" />
<path fill="#ffffff" opacity="1.00" d=" M 168.32 68.78 C 171.61 67.55 174.74 69.69 178.04 69.50 C 182.71 69.34 186.71 72.11 190.88 73.81 C 205.35 81.30 213.90 98.71 211.14 114.75 C 210.45 116.91 210.62 119.23 209.95 121.37 C 206.86 127.96 204.28 134.89 199.81 140.72 C 196.01 145.60 192.64 150.84 188.25 155.24 C 185.03 158.40 182.39 162.09 179.06 165.14 C 175.41 168.87 169.34 168.39 164.95 166.35 C 158.92 161.59 154.92 154.85 149.54 149.45 C 141.74 139.79 134.73 129.09 131.61 116.95 C 131.30 111.38 131.29 105.82 131.64 100.25 C 133.12 95.43 135.01 90.68 137.70 86.40 C 140.20 83.40 143.13 80.79 145.89 78.03 C 150.31 73.72 156.17 71.41 161.97 69.65 C 164.09 69.41 166.30 69.60 168.32 68.78 M 166.79 90.95 C 161.74 93.03 156.93 96.41 154.63 101.52 C 153.18 105.43 151.40 109.92 153.55 113.94 C 156.19 122.37 165.24 129.15 174.26 127.12 C 183.57 125.65 190.65 116.31 189.59 106.97 C 188.62 96.34 177.07 88.25 166.79 90.95 Z" />
<path fill="#ffffff" opacity="1.00" d=" M 77.13 77.50 C 81.16 77.31 85.31 77.04 89.19 78.39 C 97.36 79.04 105.47 81.14 112.97 84.51 C 118.17 86.73 121.79 92.24 121.45 97.90 C 120.23 101.50 118.63 105.29 115.17 107.27 C 104.57 114.40 91.54 115.43 79.33 117.65 C 75.91 118.88 72.16 118.04 68.79 119.41 C 61.61 121.03 54.21 121.79 47.39 124.76 C 40.76 126.91 33.85 131.64 32.75 139.03 C 32.83 142.68 35.86 145.43 38.39 147.71 C 52.40 156.24 68.93 158.50 84.66 161.99 C 94.39 163.68 104.10 165.25 113.88 166.60 C 117.65 167.99 121.76 166.90 125.54 168.24 C 130.68 169.87 136.23 168.57 141.32 170.38 C 148.97 170.13 156.38 172.46 164.01 172.44 C 166.67 172.95 169.49 174.07 171.30 176.17 C 173.42 180.22 169.98 186.53 165.01 185.50 C 159.55 186.09 154.47 183.37 149.06 183.65 C 144.35 183.90 139.90 181.95 135.19 182.36 C 119.36 179.77 103.40 178.31 87.77 174.56 C 82.14 174.04 76.82 171.99 71.28 170.99 C 58.84 167.50 46.05 164.08 34.97 157.21 C 28.70 153.21 22.44 147.03 22.59 139.08 C 23.48 133.55 25.97 128.07 30.64 124.70 C 37.65 119.90 45.68 116.76 53.97 115.01 C 60.60 113.92 67.07 111.65 73.81 111.40 C 81.89 109.71 90.38 109.79 98.26 107.00 C 104.46 106.14 110.62 103.54 114.57 98.51 C 114.77 95.66 114.67 92.70 112.02 91.00 C 103.90 84.68 93.12 84.25 83.52 81.70 C 80.77 81.42 76.63 81.48 77.13 77.50 Z" />
</g>
</svg>
