<svg xmlns="http://www.w3.org/2000/svg" width="230" height="230" xml:space="preserve"><path fill="#FFF" d="M15.75 95.426c9.14 5.59 18.303 9.114 27.486 11.113-.065 8.855-.131 17.425-.205 25.988-9.137-1.588-18.232-4.547-27.281-9.385V95.426zm.001 55.426c8.91 4.064 17.926 6.446 27.026 7.621-.097 8.826-.208 17.926-.339 27.577-9.069-1.128-17.983-3.467-26.686-7.491l-.001-27.707zm27.68-72.034c9.249 2.042 18.515 2.592 27.792 2.171-.142 9.825-.264 18.87-.375 27.521-9.223.502-18.429.026-27.612-1.973.065-8.855.128-18.003.195-27.719zm-.399 53.709c9.136 1.587 18.312 1.802 27.521 1.156-.09 8.258-.172 16.514-.254 25.148-9.24.771-18.422.812-27.521-.361.097-8.825.178-17.38.254-25.943z"/><path fill="#FFF" d="M70.849 108.512c9.223-.504 18.465-1.985 27.723-3.906a3286.51 3286.51 0 0 0-.3 25.065c-9.268 1.858-18.511 3.367-27.72 4.013.091-8.258.187-16.521.297-25.172zm-.551 50.322c9.24-.773 18.539-2.287 27.871-4.064-.002 8.615.028 17.604.088 27.334-9.463 1.81-18.883 3.359-28.206 4.179.086-9.793.166-18.812.247-27.449z"/><path fill="#FFF" d="M99.082 77.348c9.292-1.833 18.587-4.109 27.878-6.306-.242 9.454-.435 18.375-.569 27.036-9.287 2.251-18.561 4.608-27.819 6.528.135-8.599.304-17.563.51-27.258zm-.81 52.323c9.267-1.858 18.559-4.069 27.873-6.122-.024 8.414.008 16.842.103 25.557-9.377 1.84-18.743 3.887-28.076 5.664-.001-8.618.032-16.86.1-25.099zm28.119-31.593c9.284-2.251 18.586-4.395 27.896-5.889-.115 8.81-.17 17.486-.158 26.185-9.342 1.228-18.67 3.122-27.981 5.176.021-8.415.103-16.813.243-25.472z"/><path fill="#FFF" d="M126.245 149.105c9.377-1.84 18.762-3.475 28.135-4.434.158 8.887.396 17.938.716 27.309-9.408.931-18.888 2.558-28.38 4.401-.221-9.558-.377-18.561-.471-27.276zm28.566-83.883c9.272-1.509 18.537-2.413 27.778-2.184-.155 9.107-.272 18.147-.346 27.162-9.328-.349-18.647.494-27.959 1.989.116-8.81.295-17.749.527-26.967z"/><path fill="#FFF" d="M154.126 118.373c9.342-1.229 18.692-1.789 28.051-1.171.027 9.004.109 18.024.255 27.103-9.32-.867-18.679-.588-28.052.369-.157-8.885-.239-17.604-.254-26.301zM182.243 90.2c9.33.348 18.666 1.891 28.006 5.17v27.726c-9.356-3.482-18.717-5.275-28.072-5.894-.031-9.002-.004-17.989.066-27.002zm.189 54.105c9.317.867 18.601 2.885 27.817 6.521v27.73c-8.901-3.761-17.985-5.869-27.197-6.808-.275-9.23-.479-18.365-.62-27.443zM15.752 39.909c9.261 3.972 18.567 6.429 27.901 7.775-.082 11.134-.154 21.418-.222 31.135-9.248-2.043-18.478-5.58-27.68-11.136l.001-27.774zm55.959 8.888c9.366-.467 18.739-1.639 28.098-3.106-.28 11.531-.522 21.961-.728 31.657-9.292 1.833-18.581 3.223-27.858 3.642.143-9.824.303-20.426.488-32.193zm56.118-7.991c9.313-1.652 18.596-3.195 27.825-4.219-.329 9.922-.614 19.417-.846 28.635-9.272 1.509-18.56 3.624-27.851 5.82.243-9.454.534-19.441.872-30.236zm55.338-5.332c9.104.417 18.142 1.759 27.082 4.434v27.731c-9.194-3.015-18.418-4.374-27.66-4.601.156-9.107.35-18.282.578-27.564z"/></svg>